# xmcd
#
# Track frame offsets:
#	150
#	18269
#	35121
#	50932
#	68372
#	85859
#	106135
#	123450
#	136643
#	149289
#	167786
#	184750
#	201958
#	218386
#
# Disc length: 3090
#
# Revision: 1
# Processed by: cddbd v1.5.1PL0 Copyright (c) Steve Scherf et al.
# Submitted via: VisiTrax 2.9.5.180 - For more info visit www.synapsa.com
# Normalized: r0:DSETVAR1
#
DISCID=c00c100e
DTITLE=Various Artist - CDX 227 November 1999
DYEAR=1999
DGENRE=
TTITLE0=Chad Brock/Hank Williams Jr./George JOnes - A country boy can survive
TTITLE1=Montgomery Gentry - Daddy won't sell the farm
TTITLE2=Toby Keith - How do you like me now
TTITLE3=Lilla McCann - I will be
TTITLE4=Suzy Bogguss/T Graham Brown - Love is blind
TTITLE5=Martina McBride - Love's the only house
TTITLE6=Sammy Kershaw - Me and Maxine
TTITLE7=Doug Stone - Take a letter, Maria
TTITLE8=Crystal Gayle/Willie Nelson - Two sleepy people
TTITLE9=Jessica Andrews - Unbreakable heart
TTITLE10=Jody Jenkins - Cowboy Cumbia
TTITLE11=Vince Vance and The Valiants - All I want for christmas is ou
TTITLE12=Doug Wayne - Almost time for christmas
TTITLE13=Rick Simonelli - Christmas wouldn't be christmas without you
EXTD=
EXTT0=
EXTT1=
EXTT2=
EXTT3=
EXTT4=
EXTT5=
EXTT6=
EXTT7=
EXTT8=
EXTT9=
EXTT10=
EXTT11=
EXTT12=
EXTT13=
PLAYORDER=
